<svg t="1682491552481" class="icon" viewBox="0 0 1024 1024" version="1.1" xmlns="http://www.w3.org/2000/svg" p-id="4094" width="18" height="18"><path d="M512 440.32c-39.424 0-71.68 32.256-71.68 71.68s32.256 71.68 71.68 71.68 71.68-32.256 71.68-71.68-32.256-71.68-71.68-71.68zM184.32 440.32c-39.424 0-71.68 32.256-71.68 71.68s32.256 71.68 71.68 71.68 71.68-32.256 71.68-71.68-32.256-71.68-71.68-71.68zM839.68 440.32c-39.424 0-71.68 32.256-71.68 71.68s32.256 71.68 71.68 71.68 71.68-32.256 71.68-71.68-32.256-71.68-71.68-71.68z" p-id="4095" fill="#2c2c2c"></path></svg>